<svg xmlns="http://www.w3.org/2000/svg" width="62" height="62" viewBox="0 0 62 62"><path d="M60,1H10A3,3,0,0,0,7,4V19.586L6.414,19H6a5.006,5.006,0,0,0-5,5v.414l5.178,5.178a5.783,5.783,0,0,0,.794,4.633,3.116,3.116,0,0,0-1.058,5.1l9.758,9.758a3.117,3.117,0,0,0,5.056-.944l8.749,8.749,7.055,2.016L41.649,63H42a3,3,0,0,0,3-3v-.351l-4.094-5.118L38.89,47.476,38.415,47H60a3,3,0,0,0,3-3V4a3,3,0,0,0-3-3ZM10,3H60a1,1,0,0,1,1,1V9H9V4A1,1,0,0,1,10,3ZM3.025,23.611a3.008,3.008,0,0,1,2.586-2.586l4.041,4.041a5.768,5.768,0,0,0-.773.641L7.707,26.879a5.868,5.868,0,0,0-.643.771ZM30,54.586,28.414,53,35,46.414,36.586,48Zm-3-3-6.913-6.913h0l-9.758-9.758L9.121,33.707a3.829,3.829,0,0,1,0-5.414l1.172-1.172a3.829,3.829,0,0,1,5.414,0L33.586,45ZM17.879,48a1.133,1.133,0,0,1-.793-.328L7.328,37.914A1.121,1.121,0,0,1,8.121,36a1.133,1.133,0,0,1,.793.328l9.758,9.758A1.121,1.121,0,0,1,17.879,48Zm22.038,8.5,3.038,3.8a1,1,0,0,1-.66.66l-3.8-3.039Zm-3.208.38-4.8-1.371,5.6-5.6,1.372,4.8ZM60,45H36.414L17.121,25.707A5.761,5.761,0,0,0,11.6,24.181L9,21.586V11H61V44A1,1,0,0,1,60,45ZM17,7H15V5h2ZM13,7H11V5h2Zm8,0H19V5h2ZM31,33H59V13H31Zm2-2V29h6.293a7.482,7.482,0,0,0,5.328-2.208l2.172-2.171a5.536,5.536,0,0,1,7.372-.408L57,26.481V31ZM57,15v8.919l-1.585-1.268A7.558,7.558,0,0,0,50.707,21a7.482,7.482,0,0,0-5.328,2.208l-2.172,2.171A5.5,5.5,0,0,1,39.293,27H33V15ZM38,23a3,3,0,1,0-3-3A3,3,0,0,0,38,23Zm0-4a1,1,0,1,1-1,1A1,1,0,0,1,38,19ZM13,15H11V13h2Zm2-2H29v2H15Zm-4,4H29v2H11Zm0,4H29v2H11ZM37,35H59v2H37Zm20,4h2v2H57ZM37,39H55v2H37Z" transform="translate(-1 -1)"></path></svg>