<svg xmlns="http://www.w3.org/2000/svg" width="50" height="50" viewBox="0 0 50 50"><path d="M-1.27-11.865-8.35-5.225l-7.08-6.641a15.456,15.456,0,0,0-3.857,2.441,16.207,16.207,0,0,0-3.027,3.467,16.786,16.786,0,0,0-1.978,4.272A16.381,16.381,0,0,0-25,3.125H8.35a16.381,16.381,0,0,0-.708-4.81A16.786,16.786,0,0,0,5.664-5.957,16.207,16.207,0,0,0,2.637-9.424,15.16,15.16,0,0,0-1.27-11.865ZM-22.705,1.025A14.51,14.51,0,0,1-20.41-4.956a14.049,14.049,0,0,1,4.785-4.419l7.275,7.08,7.52-7.08A15.276,15.276,0,0,1,3.882-4.956,13.977,13.977,0,0,1,6.25,1.025Zm14.355-12.5a8.048,8.048,0,0,0,5.908-2.441A7.991,7.991,0,0,0,0-19.775v-4.2H-2.1v4.2a6.082,6.082,0,0,1-1.782,4.443A6.017,6.017,0,0,1-8.35-13.525a6.04,6.04,0,0,1-4.443-1.807A6.04,6.04,0,0,1-14.6-19.775v-4.2h6.25a8.048,8.048,0,0,0,5.908-2.441A7.991,7.991,0,0,0,0-32.275H-12.5a4,4,0,0,0-2.93,1.221,4,4,0,0,0-1.221,2.93v8.35a7.991,7.991,0,0,0,2.441,5.859A7.991,7.991,0,0,0-8.35-11.475Zm-6.25-16.65a2.048,2.048,0,0,1,.586-1.514,2.048,2.048,0,0,1,1.514-.586H-2.49a6.014,6.014,0,0,1-2.222,3.052A6.049,6.049,0,0,1-8.35-26.025H-14.6Zm18.75-8.35h12.5v-2.051H4.15Zm0,6.25h12.5v-2.051H4.15Zm-6.25-12.5a1.967,1.967,0,0,1,.586-1.489A2.1,2.1,0,0,1,0-44.775H20.85a2.013,2.013,0,0,1,1.489.562,2.013,2.013,0,0,1,.562,1.489H25a4,4,0,0,0-1.221-2.93,4,4,0,0,0-2.93-1.221H0a4,4,0,0,0-2.93,1.221,4,4,0,0,0-1.221,2.93v6.25H-2.1Zm25,8.35H25v-4.15H22.9Zm0,8.35a2.013,2.013,0,0,1-.562,1.489,2.013,2.013,0,0,1-1.489.562H13.965l-5.615,4.2v-4.2H4.15v2.1h2.1v6.25l8.35-6.25h6.25a4,4,0,0,0,2.93-1.221A4,4,0,0,0,25-26.025v-4.2H22.9Z" transform="translate(25 46.875)" fill="#ffffff"></path></svg>