<svg xmlns="http://www.w3.org/2000/svg" xmlns:xlink="http://www.w3.org/1999/xlink" width="81.895" height="81.895" viewBox="0 0 81.895 81.895"><defs><linearGradient id="a" x1="0.5" x2="0.5" y2="1" gradientUnits="objectBoundingBox"><stop offset="0" stop-color="#fb9e44"></stop><stop offset="1" stop-color="#f57452"></stop></linearGradient></defs><path d="M53.276,43.748,54.4,46.14q-1.339.626-2.708,1.18l-.988-2.45q1.3-.527,2.576-1.121ZM37.826,48.177l.317,2.623a53.68,53.68,0,0,0,10.834-2.475l-.852-2.5a50.88,50.88,0,0,1-10.3,2.353ZM82.9,12.888V57.8a6.612,6.612,0,0,1-6.6,6.6H64.4v5.284H57.456l-.3-.166c-1.09-.6-2.207-1.31-3.286-1.992a40.646,40.646,0,0,0-5.546-3.119A3.971,3.971,0,0,1,46.7,66.421a3.911,3.911,0,0,1,.531,1.944,3.954,3.954,0,0,1-1.851,3.341,3.9,3.9,0,0,1-1.321,5.284,3.919,3.919,0,0,1,.53,1.943A3.968,3.968,0,0,1,40.627,82.9H21.454a9.187,9.187,0,0,1-6.538-2.709l-1.254-1.254H11.567V82.9H1V53.836H11.567V57.8h2.2l.44-.33V7.6a6.612,6.612,0,0,1,6.6-6.6H33.154a6.563,6.563,0,0,1,4.671,1.935l3.348,3.348H76.291A6.612,6.612,0,0,1,82.9,12.888ZM16.851,7.6v3.963H80.01a3.957,3.957,0,0,0-3.72-2.642H40.08L35.957,4.8a3.942,3.942,0,0,0-2.8-1.161H20.813A3.968,3.968,0,0,0,16.851,7.6ZM8.925,56.477H3.642V80.253H8.925ZM41.948,78.932a1.321,1.321,0,0,0-1.321-1.321h-6.6V74.97h7.925a1.321,1.321,0,1,0,0-2.642H34.022V69.686h9.246a1.321,1.321,0,1,0,0-2.642H34.022V64.4H44.589a1.321,1.321,0,1,0,0-2.642H31.38a9.25,9.25,0,0,1-8.341-5.284h-.9A6.635,6.635,0,0,0,18.173,57.8L14.649,60.44H11.567V76.291h3.189l2.028,2.028a6.563,6.563,0,0,0,4.671,1.935H40.627A1.321,1.321,0,0,0,41.948,78.932ZM32.7,59.119V45.871c-.361.009-.717.04-1.078.04H31.38a6.6,6.6,0,0,0,0,13.209Zm22.581,6.175c.408.258.8.5,1.2.749V39.023a48.287,48.287,0,0,1-21.134,6.739V59.119h9.246a3.97,3.97,0,0,1,3.654,2.426,35.614,35.614,0,0,1,7.039,3.749Zm.594-29c.395-.247.8-.472,1.189-.732l.333-.221h1.721v-12.7L73.961,30.06,63.394,35.343H64.4v5.284A10.576,10.576,0,1,0,55.876,36.3ZM68.054,30.06l-6.293-3.146v6.293Zm-6.293,7.925H59.119v29.06h2.642ZM80.253,57.8V14.209h-63.4V55.52a9.274,9.274,0,0,1,5.284-1.684h.106A9.177,9.177,0,0,1,31.38,43.268h.243A45.693,45.693,0,0,0,53.6,37.641a13.2,13.2,0,1,1,10.8,5.627V61.761H76.291A3.968,3.968,0,0,0,80.253,57.8ZM27.418,6.284H24.776V8.925h2.642Zm-5.284,0H19.492V8.925h2.642Zm10.567,0H30.06V8.925H32.7ZM67.044,59.119H77.612V56.477H67.044Zm0-5.284H77.612V51.194H67.044Zm0-5.284H77.612V45.91H67.044Zm-47.552-31.7h29.06V32.7H19.492ZM22.134,30.06H45.91V19.492H22.134Zm-2.642,7.925h2.642V35.343H19.492Zm5.284,0H48.552V35.343H24.776Z" transform="translate(-1 -1)" fill="url(#a)"></path></svg>