<svg xmlns="http://www.w3.org/2000/svg" width="50" height="50" viewBox="0 0 50 50"><path d="M-12.5-23.975a12.164,12.164,0,0,0,.977,4.858,12.625,12.625,0,0,0,2.686,3.979,12.625,12.625,0,0,0,3.979,2.686A12.164,12.164,0,0,0,0-11.475a12.164,12.164,0,0,0,4.858-.977,12.625,12.625,0,0,0,3.979-2.686,12.625,12.625,0,0,0,2.686-3.979,12.164,12.164,0,0,0,.977-4.858,12.219,12.219,0,0,0-.977-4.834,12.267,12.267,0,0,0-2.686-3.979,13.194,13.194,0,0,0-3.979-2.686,11.909,11.909,0,0,0-4.858-1,11.909,11.909,0,0,0-4.858,1,13.194,13.194,0,0,0-3.979,2.686,12.267,12.267,0,0,0-2.686,3.979A12.219,12.219,0,0,0-12.5-23.975ZM0-34.375a10.52,10.52,0,0,1,4.321.879,10.008,10.008,0,0,1,3.394,2.441L-2.1-21.24l-3.32-3.32-1.465,1.416,5.029,5.029L9.18-29.15a23.614,23.614,0,0,1,.83,2.441,9.912,9.912,0,0,1,.391,2.734,10.417,10.417,0,0,1-.806,4.1,10.549,10.549,0,0,1-2.2,3.32,10.063,10.063,0,0,1-3.3,2.222,10.417,10.417,0,0,1-4.1.806,10.417,10.417,0,0,1-4.1-.806,10.063,10.063,0,0,1-3.3-2.222,10.549,10.549,0,0,1-2.2-3.32,10.417,10.417,0,0,1-.806-4.1,10.293,10.293,0,0,1,.806-4.053,10.549,10.549,0,0,1,2.2-3.32,10.063,10.063,0,0,1,3.3-2.222A10.417,10.417,0,0,1,0-34.375Zm2.1-10.4H6.25v-2.1H2.1Zm12.5-2.1H10.4v2.1H12.7a12.335,12.335,0,0,0,1.245,3.662,12.644,12.644,0,0,0,2.246,3.052,12.644,12.644,0,0,0,3.052,2.246A12.335,12.335,0,0,0,22.9-34.57v12.7a12.106,12.106,0,0,1-2.588,7.2,37.292,37.292,0,0,1-6.2,6.567A56.254,56.254,0,0,1,6.567-2.759Q2.637-.439,0,.83-2.637-.439-6.567-2.759a56.254,56.254,0,0,1-7.544-5.347,37.292,37.292,0,0,1-6.2-6.567,12.106,12.106,0,0,1-2.588-7.2v-12.7a12.335,12.335,0,0,0,3.662-1.245,12.644,12.644,0,0,0,3.052-2.246,12.644,12.644,0,0,0,2.246-3.052A12.335,12.335,0,0,0-12.7-44.775H-2.1v-2.1H-14.6a10.417,10.417,0,0,1-.806,4.1,10.258,10.258,0,0,1-2.2,3.3,10.258,10.258,0,0,1-3.3,2.2,10.417,10.417,0,0,1-4.1.806v14.6a14.662,14.662,0,0,0,3.906,9.717A49.988,49.988,0,0,0-12.5-4.224,65.054,65.054,0,0,0-3.906,1.147L0,3.125,3.906,1.147A65.054,65.054,0,0,0,12.5-4.224a49.988,49.988,0,0,0,8.594-7.935A14.662,14.662,0,0,0,25-21.875v-14.6a10.417,10.417,0,0,1-4.1-.806,10.258,10.258,0,0,1-3.3-2.2,10.258,10.258,0,0,1-2.2-3.3A10.417,10.417,0,0,1,14.6-46.875Z" transform="translate(25 46.875)" fill="#ffffff"></path></svg>